<?xml version="1.0" standalone="no"?>
<!DOCTYPE svg PUBLIC "-//W3C//DTD SVG 20010904//EN"
 "http://www.w3.org/TR/2001/REC-SVG-20010904/DTD/svg10.dtd">
<svg version="1.0" xmlns="http://www.w3.org/2000/svg"
 width="923.000000pt" height="447.000000pt" viewBox="0 0 923.000000 447.000000"
 preserveAspectRatio="xMidYMid meet">

<g transform="translate(0.000000,447.000000) scale(0.100000,-0.100000)"
fill="#000000" stroke="none">
<path d="M530 2899 c0 -637 3 -799 13 -793 10 6 10 4 0 -7 -38 -40 -85 -39
1565 -39 l1577 0 314 323 c270 276 283 291 95 106 -120 -119 -231 -223 -246
-233 -16 -9 -28 -24 -28 -34 0 -17 -107 -132 -123 -132 -4 0 -7 9 -7 20 0 13
131 152 365 389 297 300 367 366 376 354 9 -11 7 -19 -12 -41 -13 -15 -1 -6
26 21 l50 47 -59 58 c-32 31 -56 52 -53 46 3 -6 -3 -18 -14 -28 -20 -17 -20
-18 -3 -37 13 -14 26 -18 58 -14 23 2 32 2 21 -1 -11 -4 -24 -9 -30 -13 -5 -5
-21 -4 -35 0 -14 4 -21 7 -16 8 5 1 3 7 -3 15 -10 12 -16 12 -41 -2 -21 -12
-34 -14 -52 -7 -13 6 -104 93 -203 195 l-180 184 192 -187 c106 -103 200 -187
208 -187 34 0 9 36 -109 163 -68 72 -136 148 -152 167 -15 19 -109 118 -208
220 l-181 185 190 -187 c179 -176 329 -298 364 -298 8 0 54 -37 101 -82 47
-46 -72 76 -265 270 l-350 352 -631 0 -631 0 -5 -232 c-2 -128 -4 -357 -4
-508 l1 -275 203 -3 202 -2 0 310 0 310 -25 10 c-25 9 -33 34 -16 44 5 4 7 -2
5 -11 -10 -38 33 -43 396 -43 256 0 349 -3 358 -12 9 -9 12 -9 12 0 0 36 53
-6 222 -175 103 -103 191 -184 195 -180 4 4 -38 54 -93 110 l-99 102 103 -100
c56 -55 102 -106 102 -113 0 -9 -11 -12 -41 -8 -39 4 -40 4 -24 -14 9 -10 23
-16 31 -13 8 3 23 -2 33 -11 11 -10 25 -14 36 -10 14 6 17 17 13 71 l-4 64
-124 127 -125 127 128 -125 c70 -69 129 -132 131 -140 2 -8 7 -37 11 -63 6
-43 4 -50 -22 -75 -15 -15 -39 -40 -53 -56 l-25 -28 30 2 c78 5 74 -7 -37
-115 l-92 -90 84 90 c78 82 83 90 61 93 -34 5 -109 -54 -325 -258 l-101 -95
86 90 c88 92 120 138 133 190 12 50 54 85 100 85 30 0 47 7 68 27 36 34 35 43
-3 43 -17 0 -28 4 -24 10 3 6 17 10 31 10 13 0 24 5 24 10 0 37 -48 -2 -240
-195 l-214 -215 -1293 0 -1293 0 0 110 c0 108 -1 111 -25 122 -14 6 -25 15
-25 20 0 5 13 0 29 -11 29 -21 38 -21 710 -21 l681 0 0 200 0 200 -685 0 -685
0 0 110 c0 108 -1 111 -25 122 -14 6 -25 15 -25 20 0 5 13 0 29 -11 29 -21 38
-21 710 -21 l681 0 0 200 0 200 -885 0 -885 0 0 -801z m57 -391 c-1 -211 -2
-41 -2 377 0 418 1 590 2 383 2 -207 2 -549 0 -760z m1663 990 c-1 -114 1
-142 12 -140 7 2 10 0 5 -4 -4 -4 1 -17 10 -28 15 -18 14 -17 -8 2 l-26 23
-639 -1 c-400 0 -645 4 -654 10 -10 6 209 10 638 10 l652 0 0 135 c0 74 2 135
5 135 3 0 5 -64 5 -142z m1245 -138 c-4 -6 -127 -10 -335 -10 -208 0 -331 4
-335 10 -4 7 110 10 335 10 225 0 339 -3 335 -10z m-2580 -80 c3 -5 -3 -10
-14 -10 -19 0 -21 -6 -21 -60 0 -53 2 -60 20 -60 11 0 20 -4 20 -9 0 -5 -9
-13 -20 -16 -14 -4 -20 -15 -20 -36 0 -26 2 -29 19 -19 14 7 22 7 26 -1 4 -6
-2 -13 -14 -16 -12 -3 -21 -10 -21 -16 0 -6 -3 -7 -7 -4 -10 10 -33 -13 -33
-34 0 -10 10 -25 22 -33 14 -10 17 -16 9 -16 -44 0 -67 70 -31 92 12 8 20 24
20 40 0 22 -5 27 -27 30 -32 4 -41 28 -41 108 l1 55 6 -55 c7 -65 15 -80 42
-80 17 0 19 7 19 59 0 33 3 66 6 75 7 18 30 21 39 6z m1880 0 c3 -5 -3 -10
-14 -10 -12 0 -21 -5 -21 -12 0 -6 -3 -9 -6 -5 -4 3 -4 13 -1 22 7 17 33 20
42 5z m856 -17 c13 -16 12 -17 -3 -4 -17 13 -22 21 -14 21 2 0 10 -8 17 -17z
m-2994 -496 c-1 -84 -3 -12 -3 158 0 171 2 239 3 152 2 -87 2 -227 0 -310z
m3083 408 c13 -14 21 -25 18 -25 -2 0 -15 11 -28 25 -13 14 -21 25 -18 25 2 0
15 -11 28 -25z m-1057 -346 c-5 -5 -6 76 -3 179 l5 187 3 -179 c1 -99 -1 -183
-5 -187z m-151 109 c2 -64 0 -114 -4 -111 -5 2 -7 82 -6 176 2 173 6 151 10
-65z m-265 102 c-17 -14 -23 -26 -20 -40 4 -16 8 -18 19 -9 8 7 18 9 22 5 4
-4 -3 -15 -15 -24 -20 -15 -23 -27 -26 -122 l-3 -105 -2 108 -2 108 -30 -16
c-27 -14 -30 -20 -30 -65 0 -27 -3 -51 -7 -53 -5 -3 -8 23 -8 58 0 35 3 61 7
59 16 -10 68 27 68 48 0 21 -2 20 -32 -8 -18 -16 -25 -20 -15 -8 9 11 17 24
17 27 0 4 -285 8 -632 10 l-633 2 641 3 c627 2 641 2 659 22 10 11 25 20 33
20 9 0 6 -7 -11 -20z m490 -162 c-2 -29 -3 -6 -3 52 0 58 1 81 3 53 2 -29 2
-77 0 -105z m-600 90 c-3 -10 -132 -13 -600 -13 -463 0 -599 3 -609 13 -10 9
111 12 601 12 486 0 612 -3 608 -12z m-1214 -25 c-7 -2 -19 -2 -25 0 -7 3 -2
5 12 5 14 0 19 -2 13 -5z m3404 -59 c-3 -3 -12 -4 -19 -1 -8 3 -5 6 6 6 11 1
17 -2 13 -5z m-68 -16 c-2 -2 -69 -66 -149 -143 l-145 -140 140 143 c77 78
144 142 149 142 5 0 7 -1 5 -2z m101 -11 c0 -1 -51 -52 -112 -112 l-113 -110
110 113 c102 104 115 117 115 109z m-3457 -44 c-7 -2 -19 -2 -25 0 -7 3 -2 5
12 5 14 0 19 -2 13 -5z m-51 -10 c-8 -3 -22 -19 -33 -37 -13 -21 -19 -25 -19
-13 0 20 34 57 53 56 9 0 8 -2 -1 -6z m1358 -63 c0 -7 -216 -10 -629 -10 -346
0 -635 -2 -643 -3 -7 -2 -10 -2 -5 0 4 3 5 9 1 14 -3 5 251 9 635 9 421 0 641
-3 641 -10z m510 0 c0 -6 -52 -10 -135 -10 -83 0 -135 4 -135 10 0 6 52 10
135 10 83 0 135 -4 135 -10z m-475 -8 c-3 -3 2 -14 12 -24 24 -27 10 -22 -15
5 -17 18 -19 24 -7 24 8 0 13 -3 10 -5z m165 -7 c-7 -9 -15 -13 -19 -10 -3 3
1 10 9 15 21 14 24 12 10 -5z m365 -3 c-3 -3 -11 0 -18 7 -9 10 -8 11 6 5 10
-3 15 -9 12 -12z m-1978 -14 c-3 -8 -6 -5 -6 6 -1 11 2 17 5 13 3 -3 4 -12 1
-19z m-10 -120 c-2 -18 -4 -4 -4 32 0 36 2 50 4 33 2 -18 2 -48 0 -65z m108
72 c3 -5 -3 -10 -14 -10 -19 0 -21 -6 -21 -65 0 -45 4 -65 13 -65 8 0 8 -3 -2
-9 -10 -6 -12 -22 -8 -56 3 -29 1 -42 -4 -34 -10 16 -12 209 -3 233 7 18 30
21 39 6z m3205 -63 c0 -2 -10 -12 -22 -23 l-23 -19 19 23 c18 21 26 27 26 19z
m-70 -70 c0 -2 -10 -12 -22 -23 l-23 -19 19 23 c18 21 26 27 26 19z m-90 -91
c0 -2 -8 -10 -17 -17 -16 -13 -17 -12 -4 4 13 16 21 21 21 13z m-1102 -43
c-351 -2 -925 -2 -1275 0 -351 1 -64 2 637 2 701 0 988 -1 638 -2z m1032 -26
c0 -2 -10 -12 -22 -23 l-23 -19 19 23 c18 21 26 27 26 19z m-70 -80 c0 -1 -37
-38 -82 -82 l-83 -80 80 83 c74 76 85 87 85 79z m-3246 -176 c3 -4 -4 -17 -17
-27 -22 -19 -22 -19 -4 2 9 11 14 24 10 27 -3 4 -4 7 0 7 3 0 8 -4 11 -9z"/>
<path d="M4535 3480 l-219 -219 24 -26 c22 -24 24 -24 36 -6 13 17 20 12 105
-74 72 -74 90 -98 87 -118 -1 -13 3 -32 11 -41 13 -15 15 -15 31 -1 11 10 15
25 12 41 -4 22 12 43 114 145 108 108 154 140 154 107 0 -9 3 -9 12 0 9 9 356
12 1499 12 839 0 1490 4 1493 9 3 5 3 95 -1 200 l-6 191 -1566 0 -1566 0 -220
-220z m102 2 c-157 -157 -157 -157 -141 -182 l16 -25 -20 22 -19 22 -27 -29
c-14 -17 -30 -30 -35 -30 -8 0 370 380 379 380 3 0 -66 -71 -153 -158z m3193
-122 c0 -14 -2886 -14 -2895 0 -4 7 480 10 1444 10 961 0 1451 -3 1451 -10z
m55 -18 c-3 -3 -11 0 -18 7 -9 10 -8 11 6 5 10 -3 15 -9 12 -12z m-3305 -26
c0 -2 -8 -10 -17 -17 -16 -13 -17 -12 -4 4 13 16 21 21 21 13z m-203 -32 c-3
-3 -12 -4 -19 -1 -8 3 -5 6 6 6 11 1 17 -2 13 -5z m273 -37 c0 -2 -10 -12 -22
-23 l-23 -19 19 23 c18 21 26 27 26 19z m-56 -46 c-2 -3 -12 3 -22 13 -16 17
-16 18 5 5 12 -7 20 -15 17 -18z m76 -54 c0 -2 -17 -19 -37 -38 l-38 -34 34
38 c33 34 41 42 41 34z"/>
<path d="M8080 3277 l0 -194 25 -11 c24 -11 25 -10 25 18 0 20 -6 31 -20 35
-26 8 -26 25 0 25 18 0 20 8 23 133 l3 132 2 -137 c2 -131 3 -138 22 -138 24
0 29 11 40 83 l8 52 0 -50 c0 -84 -9 -110 -41 -113 -22 -3 -27 -8 -27 -30 0
-15 9 -35 20 -45 11 -9 20 -23 20 -30 0 -21 -30 -57 -48 -57 -13 0 -12 3 6 16
39 27 20 84 -21 63 -14 -8 -17 -8 -13 0 4 5 -2 19 -14 31 -19 19 -32 20 -210
20 -148 0 -190 -3 -190 -13 0 -27 64 -42 215 -47 l150 -6 -143 -2 -142 -2 17
-27 c20 -31 23 -41 26 -110 1 -28 -1 -49 -5 -46 -5 2 -8 29 -8 59 0 36 -4 54
-12 54 -10 0 -10 2 -1 8 15 10 -22 55 -64 76 l-33 17 0 -31 c0 -25 4 -30 23
-30 13 0 32 -7 43 -15 17 -13 16 -14 -23 -9 l-43 6 0 -122 c0 -115 1 -122 18
-109 16 13 16 13 0 -7 -36 -42 -28 -44 172 -44 155 0 196 3 218 16 26 15 26
15 5 -1 -30 -23 -29 -37 2 -29 15 4 25 2 25 -5 0 -6 -11 -11 -25 -11 l-25 0 0
-161 c0 -125 3 -159 13 -153 10 6 10 4 0 -7 -34 -36 -19 -39 187 -39 l200 0 0
195 0 195 -25 12 c-30 13 -31 21 -7 39 15 12 16 12 4 -2 -10 -14 -8 -19 12
-33 21 -13 57 -16 216 -16 196 0 211 3 178 39 -10 11 -10 13 0 7 9 -6 12 24
12 133 l0 140 -25 -23 c-23 -22 -25 -30 -25 -123 0 -65 4 -104 13 -113 10 -12
9 -12 -5 -2 -9 8 -17 9 -20 3 -2 -5 -70 -11 -161 -13 -86 -2 -153 -1 -147 0 6
2 8 8 4 13 -3 5 59 9 150 9 l156 0 0 100 c0 73 -3 100 -12 100 -27 0 -37 -17
-46 -75 l-10 -60 -1 58 c-1 56 0 58 34 78 22 13 35 29 35 42 0 20 -1 20 -27
-4 -24 -21 -25 -21 -9 -2 l19 22 -149 4 -149 3 151 2 c146 2 151 3 174 27 13
14 28 25 33 25 6 0 1 -10 -11 -23 -12 -13 -22 -33 -22 -46 0 -22 0 -22 25 -4
17 13 24 28 25 51 l0 32 -194 0 c-163 0 -195 -2 -200 -15 -3 -8 -12 -15 -21
-15 -8 0 -15 -5 -15 -12 0 -6 -3 -8 -7 -5 -10 10 -33 -13 -33 -34 0 -10 10
-25 22 -33 16 -12 18 -16 7 -16 -22 0 -49 32 -49 58 0 12 9 27 20 34 12 8 20
24 20 40 0 22 -5 27 -27 30 -34 4 -41 27 -41 123 l1 70 6 -70 c8 -80 14 -95
42 -95 18 0 19 9 21 138 l2 137 3 -132 c3 -125 5 -133 23 -133 26 0 26 -16 0
-23 -15 -4 -20 -14 -20 -36 0 -29 1 -30 25 -19 l25 11 0 194 0 193 -200 0
-200 0 0 -193z m233 76 c-18 -2 -48 -2 -65 0 -18 2 -4 4 32 4 36 0 50 -2 33
-4z m-249 -383 c-12 -12 -205 -26 -229 -17 -42 17 5 27 118 27 79 0 118 -3
111 -10z m666 -7 c0 -14 -12 -15 -112 -10 -158 9 -165 27 -10 27 107 0 122 -2
122 -17z m-637 -20 c-7 -2 -19 -2 -25 0 -7 3 -2 5 12 5 14 0 19 -2 13 -5z
m400 0 c-7 -2 -19 -2 -25 0 -7 3 -2 5 12 5 14 0 19 -2 13 -5z m-380 -130 c-7
-2 -19 -2 -25 0 -7 3 -2 5 12 5 14 0 19 -2 13 -5z m360 0 c-7 -2 -19 -2 -25 0
-7 3 -2 5 12 5 14 0 19 -2 13 -5z m-316 -11 c15 -10 43 -75 42 -99 0 -10 -7 3
-15 29 -8 26 -24 54 -36 63 -22 15 -14 22 9 7z m265 1 c-8 -3 -22 -19 -33 -37
-13 -21 -19 -25 -19 -13 0 20 34 57 53 56 9 0 8 -2 -1 -6z m-366 -62 c-4 -5
-3 -11 1 -14 5 -2 2 -2 -5 0 -8 1 -79 3 -158 3 -89 0 -144 4 -144 10 0 6 59
10 156 10 91 0 153 -4 150 -9z m311 -33 c-3 -8 -6 -5 -6 6 -1 11 2 17 5 13 3
-3 4 -12 1 -19z m484 -5 c13 -16 12 -17 -3 -4 -10 7 -18 15 -18 17 0 8 8 3 21
-13z m-494 -115 c-2 -18 -4 -6 -4 27 0 33 2 48 4 33 2 -15 2 -42 0 -60z m108
72 c3 -5 -3 -10 -14 -10 -20 0 -21 -5 -21 -155 0 -85 3 -154 8 -154 4 1 14 1
22 0 13 -1 13 -3 0 -10 -8 -6 -18 -7 -22 -5 -4 3 -76 5 -159 5 -131 0 -154 -2
-173 -18 -21 -18 -21 -18 -3 3 9 11 15 23 13 25 -2 2 65 3 150 1 l154 -4 0
150 c0 83 3 157 6 166 7 18 30 21 39 6z m-328 -232 c-1 -40 -3 -8 -3 72 0 80
2 112 3 73 2 -40 2 -106 0 -145z m70 165 c-3 -10 -5 -2 -5 17 0 19 2 27 5 18
2 -10 2 -26 0 -35z"/>
<path d="M3600 3218 c41 -45 50 -53 50 -45 0 2 -21 23 -47 47 l-48 45 45 -47z"/>
<path d="M4820 3215 c-24 -25 -42 -45 -39 -45 3 0 25 20 49 45 24 25 42 45 39
45 -3 0 -25 -20 -49 -45z"/>
<path d="M3660 3157 c0 -2 15 -16 33 -33 l32 -29 -29 33 c-28 30 -36 37 -36
29z"/>
<path d="M4705 3098 l-60 -63 63 60 c58 55 67 65 59 65 -1 0 -29 -28 -62 -62z"/>
<path d="M3760 3055 c19 -19 36 -35 39 -35 3 0 -10 16 -29 35 -19 19 -36 35
-39 35 -3 0 10 -16 29 -35z"/>
<path d="M5010 3046 c0 -28 6 -38 42 -61 24 -16 37 -30 31 -32 -7 -3 -26 5
-43 17 l-31 22 2 -156 1 -156 304 0 c259 0 309 2 332 16 26 15 26 15 5 -1 -30
-23 -29 -37 2 -29 15 4 25 2 25 -5 0 -6 -11 -11 -25 -11 -25 0 -25 0 -25 -95
l0 -95 -357 0 -358 0 -162 162 -163 163 -140 -140 -140 -140 207 -205 c203
-200 203 -200 30 -24 -133 134 -176 184 -171 197 3 9 10 17 16 17 5 0 6 5 2
12 -4 7 -3 8 5 4 6 -4 8 -12 5 -18 -4 -6 73 -90 171 -188 156 -157 176 -180
167 -197 -8 -14 -8 -23 0 -31 9 -9 181 -12 650 -12 l638 0 0 510 0 510 -510 0
-510 0 0 -34z m57 -12 c4 -12 72 -14 446 -14 l441 0 28 27 c15 14 31 24 34 20
4 -4 -4 -16 -19 -27 -17 -14 -23 -26 -20 -40 4 -16 8 -18 19 -9 8 7 18 8 22 4
4 -4 -3 -14 -15 -22 l-23 -15 0 -425 c0 -233 4 -422 8 -419 5 3 9 -1 9 -9 0
-11 -4 -12 -14 -4 -10 9 -13 94 -13 435 l0 425 -30 -16 -30 -15 -2 -188 -3
-187 -5 197 c-3 108 -2 194 2 192 16 -10 68 27 68 48 0 21 -2 20 -32 -8 -18
-16 -25 -20 -15 -8 9 11 17 24 17 27 0 4 -192 7 -426 7 l-425 0 21 -30 c12
-16 18 -30 14 -30 -5 0 -3 -5 4 -12 15 -15 17 -122 2 -113 -5 3 -10 31 -10 61
0 36 -4 54 -12 54 -10 0 -10 2 0 9 10 6 5 16 -18 42 -18 19 -42 45 -53 58
l-22 24 23 -12 c13 -7 26 -19 29 -27z m821 -66 c-4 -10 -87 -14 -364 -16 -197
-1 -365 0 -372 3 -7 3 -10 9 -7 15 10 16 748 14 743 -2z m-231 -154 c-3 -3
-12 -4 -19 -1 -8 3 -5 6 6 6 11 1 17 -2 13 -5z m62 -30 c12 -15 21 -34 21 -43
-1 -9 -7 -2 -14 15 -8 18 -22 37 -33 43 -10 6 -13 11 -6 11 6 0 21 -12 32 -26z
m-659 -39 c0 -2 -10 -9 -22 -15 -22 -11 -22 -10 -4 4 21 17 26 19 26 11z m547
-7 c0 -10 -59 -12 -269 -10 -164 2 -268 6 -268 12 0 6 102 10 268 10 208 0
269 -3 269 -12z m-557 -22 c0 -2 -8 -10 -17 -17 -16 -13 -17 -12 -4 4 13 16
21 21 21 13z m697 -18 c-3 -8 -6 -5 -6 6 -1 11 2 17 5 13 3 -3 4 -12 1 -19z
m-1217 -42 c0 -18 2 -18 27 5 15 13 6 -1 -20 -32 -26 -31 -47 -65 -47 -75 0
-16 -2 -16 -10 -4 -8 12 -14 10 -42 -15 -31 -28 -31 -28 3 10 49 54 62 81 50
103 -12 22 17 61 31 40 4 -7 8 -22 8 -32z m162 -21 c-4 -33 2 -42 89 -133 l94
-97 -104 100 c-57 55 -123 120 -145 145 -40 45 -40 45 -3 11 l37 -35 0 39 c0
36 1 37 18 22 13 -12 17 -27 14 -52z m-95 -27 c-3 -8 -6 -5 -6 6 -1 11 2 17 5
13 3 -3 4 -12 1 -19z m1090 -110 c-2 -24 -4 -5 -4 42 0 47 2 66 4 43 2 -24 2
-62 0 -85z m-1330 -4 c-3 -3 -12 -4 -19 -1 -8 3 -5 6 6 6 11 1 17 -2 13 -5z
m128 -64 c10 -11 16 -20 13 -20 -3 0 -13 9 -23 20 -10 11 -16 20 -13 20 3 0
13 -9 23 -20z m1181 -18 c-17 -16 -18 -16 -5 5 7 12 15 20 18 17 3 -2 -3 -12
-13 -22z m-224 -19 c-95 -2 -248 -2 -340 0 -92 1 -14 3 173 3 187 0 262 -2
167 -3z m-881 -40 c13 -16 12 -17 -3 -4 -17 13 -22 21 -14 21 2 0 10 -8 17
-17z"/>
<path d="M6173 3050 l35 -30 659 0 c643 0 660 1 701 20 24 12 40 25 37 30 -4
6 -280 10 -736 10 l-730 0 34 -30z"/>
<path d="M6140 3031 c0 -19 6 -32 18 -35 9 -4 28 -15 42 -27 22 -17 23 -19 5
-17 -11 2 -26 9 -33 16 -7 6 -18 12 -23 12 -5 0 -9 -57 -9 -131 0 -124 1 -131
18 -118 16 13 16 13 0 -7 -10 -11 -18 -26 -18 -32 0 -9 176 -12 733 -10 l732
3 1 120 c2 159 2 158 -49 151 -37 -5 -39 -5 -21 9 10 8 29 15 42 15 18 0 22 6
22 30 0 30 0 30 -27 16 -16 -8 -41 -28 -57 -45 -27 -28 -29 -37 -27 -90 1 -32
-1 -61 -6 -64 -15 -9 -6 123 9 141 8 9 18 23 22 30 6 9 -126 12 -644 12 l-650
0 17 -27 c20 -31 23 -41 26 -110 1 -28 -1 -49 -5 -46 -5 2 -8 29 -8 59 0 36
-4 54 -12 54 -10 0 -10 2 -1 8 9 5 -2 23 -36 60 -27 29 -51 52 -55 52 -3 0 -6
-13 -6 -29z m1325 -66 c0 -10 -1157 -20 -1183 -10 -7 3 -10 9 -7 15 9 14 1190
9 1190 -5z m75 -225 c0 -7 -230 -10 -670 -10 -440 0 -670 3 -670 10 0 7 230
10 670 10 440 0 670 -3 670 -10z m60 -22 c0 -6 -6 -5 -15 2 -8 7 -15 14 -15
16 0 2 7 1 15 -2 8 -4 15 -11 15 -16z"/>
<path d="M3840 2975 c19 -19 36 -35 39 -35 3 0 -10 16 -29 35 -19 19 -36 35
-39 35 -3 0 10 -16 29 -35z"/>
<path d="M4354 2748 l-29 -33 33 29 c30 28 37 36 29 36 -2 0 -16 -15 -33 -32z"/>
<path d="M6140 2279 c0 -141 3 -179 13 -173 8 6 8 3 -1 -9 -8 -9 -11 -21 -7
-27 7 -12 1723 -14 1742 -2 9 6 11 56 8 197 l-4 190 -875 3 -876 2 0 -181z
m1293 114 c-226 -2 -600 -2 -830 0 -230 1 -44 2 412 2 457 0 645 -1 418 -2z
m-1253 -297 c0 -2 -8 -10 -17 -17 -16 -13 -17 -12 -4 4 13 16 21 21 21 13z"/>
<path d="M2645 1558 c-160 -161 -204 -209 -100 -105 105 103 193 187 197 187
23 0 118 73 124 95 7 28 22 33 31 10 5 -14 8 -14 26 2 13 12 9 1 -13 -35 -18
-30 -135 -155 -272 -292 -167 -166 -239 -244 -235 -255 4 -8 12 -15 19 -15 7
0 138 125 291 278 154 152 274 268 269 257 -6 -11 -129 -138 -274 -282 -266
-265 -289 -283 -319 -247 -7 8 -21 13 -31 10 -15 -3 -17 -1 -8 9 7 9 7 21 0
40 l-10 27 -42 -34 c-53 -44 -58 -58 -21 -59 37 -1 63 -6 71 -14 4 -4 -15 -4
-43 0 -54 8 -54 8 -72 6 -29 -3 -6 -33 125 -164 l137 -137 588 0 587 0 0 -95
0 -95 200 0 c206 0 221 3 188 39 -10 11 -10 13 0 7 9 -5 12 8 12 52 0 46 -4
61 -16 66 -9 3 -20 4 -25 0 -5 -3 -9 0 -9 7 0 7 10 9 25 7 14 -3 25 -1 25 3 0
5 34 9 75 9 52 0 77 4 81 13 2 7 3 97 2 200 l-3 188 -59 -53 c-32 -29 -54 -43
-48 -31 7 12 29 35 49 52 l38 31 -57 0 c-38 0 -68 -6 -88 -18 -16 -10 -28 -21
-25 -24 3 -2 -5 -4 -18 -4 -26 1 -36 -36 -15 -62 12 -15 11 -16 -4 -3 -24 18
-23 67 0 80 13 7 17 18 15 38 -4 23 -10 29 -31 28 -21 0 -28 6 -33 30 -9 42
-11 393 -1 398 4 3 7 -72 7 -166 0 -192 5 -227 35 -227 19 0 20 7 20 235 l0
235 -140 0 -140 0 0 -235 c0 -226 1 -235 19 -235 11 0 23 6 28 13 4 6 11 95
14 197 l5 185 2 -192 c2 -215 -4 -249 -43 -239 -23 6 -25 3 -25 -24 0 -17 9
-39 20 -50 11 -11 20 -26 20 -32 0 -7 -7 -2 -16 11 -11 15 -23 21 -35 18 -11
-3 -17 -2 -14 3 3 4 -7 16 -22 25 -24 16 -53 18 -258 17 -126 -1 -297 2 -380
6 -109 5 -155 4 -172 -5 -13 -7 -21 -8 -18 -3 3 5 -5 10 -17 12 -21 3 -23 9
-26 62 l-3 59 163 161 163 161 -151 -155 c-141 -144 -152 -158 -158 -201 -10
-69 -2 -80 51 -76 44 4 51 10 314 273 189 188 265 271 256 277 -8 6 -7 7 5 4
9 -3 24 3 34 14 17 19 13 19 -267 19 l-284 0 -290 -292z m545 -13 c-218 -218
-247 -244 -283 -249 -22 -4 -42 -4 -45 -1 -4 3 94 106 216 228 123 123 219
227 215 232 -4 4 -3 5 3 2 7 -4 17 0 24 8 10 13 -10 15 -161 18 l-174 3 193 1
c107 1 196 3 198 6 3 2 16 2 30 -1 24 -4 6 -24 -216 -247z m-78 183 c-53 -7
-77 -7 -85 1 -8 8 12 11 74 10 l84 -2 -73 -9z m795 0 c-18 -6 -40 -7 -65 0
-35 9 -33 10 28 10 55 0 61 -1 37 -10z m-977 -508 c-14 -11 -29 -20 -33 -20
-5 0 -5 -5 -1 -12 5 -7 0 -9 -14 -6 -26 7 -46 -15 -39 -42 3 -11 1 -18 -4 -14
-15 9 -10 40 10 62 10 12 20 20 22 17 3 -2 18 4 34 15 39 25 57 25 25 0z
m1271 -60 c26 14 24 -2 -2 -18 -19 -12 -20 -21 -17 -127 2 -62 0 -111 -4 -108
-5 2 -8 51 -8 109 0 76 -3 104 -12 105 -10 0 -10 2 0 6 6 2 13 17 13 31 1 17
3 21 6 10 4 -14 8 -16 24 -8z m-441 -14 c0 -2 -8 -10 -17 -17 -16 -13 -17 -12
-4 4 13 16 21 21 21 13z m-125 -16 c-11 -5 -166 -9 -345 -9 -179 0 -334 4
-345 9 -12 5 133 9 345 9 212 0 357 -4 345 -9z m-1331 -23 c-2 -7 36 -53 86
-102 65 -65 90 -96 90 -115 0 -21 -14 -11 -105 80 -58 58 -105 108 -105 112 0
3 7 13 15 21 8 8 11 18 7 22 -4 5 -2 5 5 1 7 -4 10 -12 7 -19z m-41 6 c-7 -2
-19 -2 -25 0 -7 3 -2 5 12 5 14 0 19 -2 13 -5z m162 -103 c55 -55 97 -100 95
-100 -3 0 -50 45 -105 100 -55 55 -97 100 -95 100 3 0 50 -45 105 -100z m1028
93 c-89 -2 -237 -2 -330 0 -92 1 -19 3 162 3 182 0 257 -2 168 -3z m660 -13
c-3 -12 -8 -19 -11 -16 -5 6 5 36 12 36 2 0 2 -9 -1 -20z m-1642 -7 c13 -16
12 -17 -3 -4 -17 13 -22 21 -14 21 2 0 10 -8 17 -17z m906 -190 c-158 -2 -416
-2 -575 0 -158 1 -28 2 288 2 316 0 446 -1 287 -2z m766 0 c-13 -2 -33 -2 -45
0 -13 2 -3 4 22 4 25 0 35 -2 23 -4z m62 -23 c10 -11 16 -20 13 -20 -3 0 -13
9 -23 20 -10 11 -16 20 -13 20 3 0 13 -9 23 -20z m-495 -5 c-7 -8 -17 -15 -23
-15 -6 0 -2 7 9 15 25 19 30 19 14 0z m350 -5 c8 -5 11 -10 5 -10 -5 0 -17 5
-25 10 -8 5 -10 10 -5 10 6 0 17 -5 25 -10z m-336 -46 c3 -9 5 -37 4 -62 l-1
-47 -6 55 c-5 44 -9 55 -23 54 -10 -1 -18 2 -18 7 0 16 38 10 44 -7z m309
-108 c7 4 9 3 4 -1 -4 -5 1 -18 10 -29 18 -21 18 -21 -4 -2 -19 16 -41 18
-165 19 l-143 1 138 3 137 4 2 52 2 52 3 -53 c3 -37 8 -51 16 -46z"/>
<path d="M3105 1540 c-132 -132 -233 -240 -225 -240 8 0 123 108 255 240 132
132 233 240 225 240 -8 0 -122 -108 -255 -240z"/>
<path d="M3670 1548 l0 -303 25 -12 c24 -11 25 -10 25 22 0 24 -5 34 -20 38
-11 3 -20 11 -20 17 0 7 8 10 20 7 20 -5 21 -2 20 224 -1 126 1 233 5 239 4 6
63 10 147 10 131 0 140 -1 145 -20 6 -21 13 -25 29 -12 5 4 1 0 -8 -10 -16
-14 -18 -38 -18 -222 l0 -206 25 0 25 0 0 265 0 265 -200 0 -200 0 0 -302z"/>
<path d="M4894 1837 c-8 -22 13 -65 40 -83 14 -9 23 -20 20 -25 -3 -5 -15 3
-28 18 l-23 26 -6 -144 c-4 -79 -7 -281 -7 -449 l0 -305 113 -113 112 -112
703 0 702 0 0 433 0 432 -168 168 -167 167 -643 0 c-525 0 -644 -2 -648 -13z
m959 -54 c-167 -2 -439 -2 -605 0 -167 1 -31 2 302 2 333 0 469 -1 303 -2z
m369 -53 c3 0 8 10 12 22 6 25 22 16 28 -17 2 -12 32 -39 71 -65 65 -43 67
-46 67 -85 0 -33 6 -47 30 -70 26 -25 33 -27 55 -17 22 10 25 9 25 -8 0 -10
-9 -22 -20 -25 -20 -6 -20 -13 -18 -385 2 -208 0 -376 -4 -373 -5 2 -8 170 -8
374 0 203 -4 369 -8 369 -5 0 -17 -6 -28 -14 -17 -13 -20 -31 -25 -203 l-5
-188 -2 193 -2 194 29 28 28 29 -21 20 c-29 28 -36 26 -36 -6 0 -62 -14 -54
-140 74 -116 117 -118 121 -35 46 50 -45 103 -95 119 -112 35 -37 46 -39 46
-8 0 14 -30 54 -80 109 -44 47 -80 90 -80 94 0 4 -15 24 -32 44 -33 34 -33 35
-2 7 16 -15 33 -27 36 -27z m-1202 -291 c0 -155 -3 -285 -6 -288 -2 -3 -4 124
-4 282 1 158 -2 293 -6 300 -5 9 -4 9 5 1 9 -8 12 -85 11 -295z m812 294
c-150 -2 -393 -2 -540 0 -147 1 -24 2 273 2 297 0 417 -1 267 -2z m126 -110
c-38 -2 -98 -2 -135 0 -38 2 -7 3 67 3 74 0 105 -1 68 -3z m-267 -20 c-16 -14
-22 -31 -24 -73 -2 -52 -1 -55 20 -53 13 2 22 -2 20 -9 -1 -6 21 -20 48 -30
l50 -19 -30 31 -30 31 162 -1 c89 -1 167 1 173 5 7 4 29 -9 51 -31 55 -53 62
-33 8 24 -40 43 -39 43 9 -4 28 -29 52 -57 52 -64 0 -17 -71 -1 -100 24 -14
11 -8 3 12 -19 l37 -40 3 -152 3 -153 -172 172 c-106 106 -181 173 -195 175
-13 1 -36 5 -53 8 l-29 5 33 -34 c26 -27 46 -37 80 -42 38 -5 56 -16 103 -62
32 -31 60 -68 63 -84 7 -31 25 -48 25 -23 0 9 5 13 11 9 6 -3 9 -24 7 -45 -3
-35 1 -44 38 -80 39 -38 53 -45 99 -49 16 -1 15 -3 -7 -12 -25 -9 -32 -5 -79
39 -28 26 -56 50 -64 53 -7 3 -70 58 -141 124 -71 65 -140 122 -152 127 -58
22 -35 -13 89 -139 l134 -135 -137 128 c-75 70 -139 134 -142 142 -7 19 17 27
60 20 l35 -6 -56 62 c-50 57 -55 66 -55 110 0 47 24 87 51 87 6 0 2 -8 -10
-17z m500 -50 c77 -73 89 -112 89 -282 0 -69 -4 -132 -9 -140 -6 -9 -16 -11
-32 -6 -13 5 -24 6 -24 4 0 -2 -12 9 -27 24 -33 33 -36 42 -9 27 17 -9 20 -6
24 18 4 26 4 26 6 -4 1 -36 23 -59 47 -50 14 5 15 25 12 149 -3 122 -7 148
-25 182 -21 40 -67 88 -113 118 -13 10 -19 17 -11 17 7 0 39 -25 72 -57z
m-851 7 c27 -7 90 -64 260 -235 124 -124 227 -229 230 -233 2 -4 -99 95 -225
219 -249 245 -263 256 -356 247 -94 -9 -109 -50 -109 -290 0 -169 8 -209 43
-216 16 -3 17 11 17 176 0 202 2 217 31 199 25 -15 24 -27 -1 -20 -19 5 -20 0
-20 -176 0 -174 1 -181 20 -181 11 0 20 -4 20 -10 0 -5 -9 -10 -20 -10 -12 0
-20 -7 -21 -17 -1 -16 -2 -16 -6 -1 -2 9 -15 19 -28 22 -39 10 -47 65 -43 270
4 196 11 229 58 253 30 15 101 17 150 3z m710 -20 c-8 -5 -80 -9 -160 -8
l-145 2 150 6 c83 3 155 7 160 8 6 1 3 -3 -5 -8z m-310 -38 c13 -11 10 -11
-12 -1 -16 7 -28 19 -28 28 0 13 2 13 13 0 6 -8 19 -20 27 -27z m-467 1 c-7
-2 -19 -2 -25 0 -7 3 -2 5 12 5 14 0 19 -2 13 -5z m-48 -14 c-4 -5 1 -19 11
-30 15 -17 15 -19 2 -14 -25 10 -35 55 -12 55 3 0 2 -5 -1 -11z m615 -532 c0
-4 -19 -4 -42 -1 -40 6 -60 23 -265 228 -200 198 -236 240 -218 258 3 3 115
-104 248 -238 133 -134 249 -244 257 -244 8 0 -107 123 -255 273 l-270 272
273 -270 c149 -148 272 -273 272 -278z m-565 523 c3 -5 1 -10 -4 -10 -6 0 -11
5 -11 10 0 6 2 10 4 10 3 0 8 -4 11 -10z m521 -553 c24 9 54 -16 54 -47 0 -17
-2 -30 -4 -30 -2 0 -13 -3 -23 -6 -17 -5 -17 -5 0 6 19 13 23 60 5 61 -7 0
-113 0 -236 -1 l-223 -1 -54 53 -55 53 0 215 0 216 261 -262 c150 -150 267
-260 275 -257z m411 413 c1 -14 0 -18 -3 -7 -3 9 -14 17 -25 17 -10 0 -19 5
-19 11 0 6 10 9 23 7 15 -2 23 -10 24 -28z m-922 -430 c12 -19 -12 -10 -31 11
-19 22 -19 22 3 10 12 -6 25 -16 28 -21z m-349 -16 c-23 -16 -40 -19 -31 -4 3
6 13 10 21 10 8 0 14 5 14 12 0 6 3 8 7 4 5 -4 -1 -14 -11 -22z m124 -91 l95
-98 -97 95 c-54 52 -98 88 -98 80 0 -9 34 -49 75 -90 65 -65 93 -110 67 -110
-4 0 -42 35 -85 78 -54 54 -76 83 -72 95 3 9 7 24 10 32 2 8 6 15 7 15 2 0 46
-44 98 -97z m1073 -110 c-177 -2 -469 -2 -650 0 -180 1 -35 2 322 2 358 0 505
-1 328 -2z"/>
<path d="M4043 1289 c-16 -6 -23 -17 -23 -34 0 -23 3 -25 23 -19 29 9 29 8 25
37 -3 21 -6 23 -25 16z"/>
<path d="M4450 740 c0 -48 1 -50 20 -40 11 6 20 7 21 3 0 -4 4 1 9 12 7 16 9
17 9 3 1 -14 13 -18 64 -21 l62 -4 -65 -1 c-36 0 -69 -1 -75 -2 -5 -1 -17 -3
-25 -4 -8 0 -16 -9 -18 -18 -3 -16 8 -18 118 -18 115 0 122 1 109 18 -11 14
-9 13 9 -2 l22 -19 -2 71 -2 72 -128 0 -128 0 0 -50z"/>
</g>
</svg>
